# xmcd CD database file generated by freedbAccess_ocx
#
# Track frame offsets:
#       150
#       56656
#       93760
#       132051
#       149319
#       158774
#       178257
#       198703
#       219300
#       246199
#       264125
#
# Disc length: 4222 seconds
#
# Revision: 0
# Processed by: cddbd v1.5.2PL0 Copyright (c) Steve Scherf et al.
# Submitted via: CDnGo 2.00
#
DISCID=98107c0b
DTITLE=Christoph Sonntag - REICH und SCHÖN an einem Abend
DYEAR=2002
DGENRE=Comedy
TTITLE0=REICH und SCHÖN (Teil 1)
TTITLE1=Glückspilz des Abends
TTITLE2=Esoterischer Sockentausch
TTITLE3=Genmanipulierte Hundehütte
TTITLE4=Börsensport
TTITLE5=Hungerhilfe
TTITLE6=REICH und SCHÖN (Teil 2)
TTITLE7=Magengeschwür
TTITLE8=Ernährungspsychologische Endlosschleife
TTITLE9=Wie Gott, wie Oline oder Vivaldi
TTITLE10=Volle Windeln
EXTD=
EXTT0=
EXTT1=
EXTT2=
EXTT3=
EXTT4=
EXTT5=
EXTT6=
EXTT7=
EXTT8=
EXTT9=
EXTT10=
PLAYORDER=
